{"title":"Deadgirl.2008.DVDRIP.XviD-ZEKTORM","uid":5083122,"size":739257413,"categoryP":"video","categoryS":"movies","magnet":"?xt=urn:btih:90f9cb565a19d4a7c0aaf90dc4efdd55869cd130&amp;dn=Deadgirl.2008.DVDRIP.XviD-ZEKTORM&amp;tr=udp%3A%2F%2Ftracker.openbittorrent.com%3A80&amp;tr=udp%3A%2F%2Fopen.demonii.com%3A1337&amp;tr=udp%3A%2F%2Ftracker.coppersurfer.tk%3A6969&amp;tr=udp%3A%2F%2Fexodus.desync.com%3A6969","seeders":20,"leechers":1,"uploader":"blowley","files":5,"time":1252505082,"description":"Title                            : Deadgirl\nYear                             : 2008\nGenre                            : Horror\niMDB URL                         : http://www.imdb.com/title/tt0896534/\n\nComplete name                    : Deadgirl.2008.DVDRIP.XviD-ZEKTORM.avi\nFormat                           : AVI\nFile size                        : 701 MiB\nDuration                         : 1h 41mn\nOverall bit rate                 : 965 Kbps\nSubtitles                        : English (Format: VobSub)\nSource                           : DVD NTSC\nVideo\nFormat                           : MPEG-4 Visual\nFormat profile                   : Streaming Video@L1\nCodec ID                         : XVID\nCodec ID/Hint                    : XviD\nDuration                         : 1h 41mn\nBit rate                         : 841 Kbps\nWidth                            : 720 pixels\nHeight                           : 320 pixels\nDisplay aspect ratio             : 2.25\nFrame rate                       : 23.976 fps\nResolution                       : 24 bits\nColorimetry                      : 4:2:0\nScan type                        : Progressive\nBits/(Pixel*Frame)               : 0.152\nStream size                      : 612 MiB (87%)\nWriting library                  : XviD\n\nAudio\nFormat                           : MPEG Audio\nFormat version                   : Version 1\nFormat profile                   : Layer 3\nCodec ID                         : 55\nCodec ID/Hint                    : MP3\nDuration                         : 1h 41mn\nBit rate mode                    : Variable\nBit rate                         : 111 Kbps\nMinimum bit rate                 : 128 Kbps\nChannel(s)                       : 2 channels\nSampling rate                    : 48.0 KHz\nResolution                       : 16 bits\nStream size                      : 80.4 MiB (11%)\nWriting library                  : LAME3.98r\nEncoding settings                : ABR\n","torrent":{"xt":"urn:btih:90f9cb565a19d4a7c0aaf90dc4efdd55869cd130","amp;dn":"Deadgirl.2008.DVDRIP.XviD-ZEKTORM","amp;tr":["udp%3A%2F%2Ftracker.openbittorrent.com%3A80","udp%3A%2F%2Fopen.demonii.com%3A1337","udp%3A%2F%2Ftracker.coppersurfer.tk%3A6969","udp%3A%2F%2Fexodus.desync.com%3A6969"],"infoHash":"90f9cb565a19d4a7c0aaf90dc4efdd55869cd130","infoHashBuffer":{"type":"Buffer","data":[144,249,203,86,90,25,212,167,192,170,249,13,196,239,221,85,134,156,209,48]},"announce":[],"urlList":[]}}